ffmpeg started on 2016-12-12 at 11:29:09
Report written to "Output/theora/results/ffmpeg/sintel15000k.log"
Command line:
Tools/ffmpeg/ffmpeg -benchmark -y -i Input/y4m/sintel.y4m -c:v libtheora -b:v 15000k -an Output/theora/encoded/sintel15000k.mkv
ffmpeg version N-82227-gdb23fde Copyright (c) 2000-2016 the FFmpeg developers
  built with gcc 5.4.0 (Ubuntu 5.4.0-6ubuntu1~16.04.2) 20160609
  configuration: --prefix=/home/jaroslav/ffmpeg_build --pkg-config-flags=--static --extra-cflags=-I/home/jaroslav/ffmpeg_build/include --extra-ldflags=-L/home/jaroslav/ffmpeg_build/lib --bindir=/home/jaroslav/bin --enable-gpl --enable-libass --enable-libfdk-aac --enable-libfreetype --enable-libmp3lame --enable-libopus --enable-libtheora --enable-libvorbis --enable-libvpx --enable-libx264 --enable-libx265 --enable-nvenc --enable-libmfx --enable-libxvid --enable-libgsm --enable-libopencore-amrnb --enable-version3 --enable-nonfree
  libavutil      55. 35.100 / 55. 35.100
  libavcodec     57. 66.101 / 57. 66.101
  libavformat    57. 57.100 / 57. 57.100
  libavdevice    57.  2.100 / 57.  2.100
  libavfilter     6. 66.100 /  6. 66.100
  libswscale      4.  3.100 /  4.  3.100
  libswresample   2.  4.100 /  2.  4.100
  libpostproc    54.  2.100 / 54.  2.100
Input #0, yuv4mpegpipe, from 'Input/y4m/sintel.y4m':
  Duration: 00:00:20.83, start: 0.000000, bitrate: 2057307 kb/s
    Stream #0:0: Video: rawvideo (I420 / 0x30323449), yuv420p(progressive), 4096x1744, SAR 1:1 DAR 256:109, 24 fps, 24 tbr, 24 tbn, 24 tbc
Output #0, matroska, to 'Output/theora/encoded/sintel15000k.mkv':
  Metadata:
    encoder         : Lavf57.57.100
    Stream #0:0: Video: theora (libtheora) (theo / 0x6F656874), yuv420p, 4096x1744 [SAR 1:1 DAR 256:109], q=2-31, 15000 kb/s, 24 fps, 1k tbn, 24 tbc
    Metadata:
      encoder         : Lavc57.66.101 libtheora
Stream mapping:
  Stream #0:0 -> #0:0 (rawvideo (native) -> theora (libtheora))
Press [q] to stop, [?] for help
frame=    3 fps=0.0 q=-0.0 size=       4kB time=00:00:00.08 bitrate= 380.5kbits/s speed=0.108x    frame=    5 fps=3.3 q=-0.0 size=       4kB time=00:00:00.16 bitrate= 190.2kbits/s speed=0.11x    frame=    7 fps=3.1 q=-0.0 size=       4kB time=00:00:00.25 bitrate= 127.3kbits/s speed=0.11x    frame=    9 fps=3.1 q=-0.0 size=       4kB time=00:00:00.33 bitrate=  95.7kbits/s speed=0.114x    frame=   11 fps=3.1 q=-0.0 size=       4kB time=00:00:00.41 bitrate=  76.5kbits/s speed=0.117x    frame=   13 fps=3.1 q=-0.0 size=     979kB time=00:00:00.50 bitrate=16011.4kbits/s speed=0.119x    frame=   15 fps=3.2 q=-0.0 size=     979kB time=00:00:00.58 bitrate=13735.8kbits/s speed=0.124x    frame=   16 fps=1.9 q=-0.0 size=     979kB time=00:00:00.62 bitrate=12814.2kbits/s speed=0.0759x    frame=   17 fps=1.4 q=-0.0 size=     979kB time=00:00:00.66 bitrate=12008.5kbits/s speed=0.0546x    frame=   18 fps=1.2 q=-0.0 size=     979kB time=00:00:00.70 bitrate=11314.1kbits/s speed=0.0489x    frame=   20 fps=1.3 q=-0.0 size=     979kB time=00:00:00.79 bitrate=10115.6kbits/s speed=0.0523x    frame=   22 fps=1.4 q=-0.0 size=     979kB time=00:00:00.87 bitrate=9157.2kbits/s speed=0.0554x    frame=   24 fps=1.5 q=-0.0 size=     979kB time=00:00:00.95 bitrate=8364.6kbits/s speed=0.0582x    frame=   26 fps=1.5 q=-0.0 size=    1921kB time=00:00:01.04 bitrate=15088.6kbits/s speed=0.0615x    frame=   28 fps=1.6 q=-0.0 size=    1921kB time=00:00:01.12 bitrate=13976.4kbits/s speed=0.0639x    frame=   30 fps=1.6 q=-0.0 size=    1921kB time=00:00:01.20 bitrate=13016.9kbits/s speed=0.0662x    frame=   32 fps=1.7 q=-0.0 size=    1921kB time=00:00:01.29 bitrate=12171.3kbits/s speed=0.0684x    frame=   34 fps=1.7 q=-0.0 size=    1921kB time=00:00:01.37 bitrate=11437.1kbits/s speed=0.0703x    frame=   36 fps=1.8 q=-0.0 size=    2662kB time=00:00:01.45 bitrate=14946.1kbits/s speed=0.0718x    frame=   38 fps=1.8 q=-0.0 size=    2662kB time=00:00:01.54 bitrate=14132.5kbits/s speed=0.0728x    frame=   40 fps=1.8 q=-0.0 size=    2662kB time=00:00:01.62 bitrate=13411.1kbits/s speed=0.074x    frame=   42 fps=1.8 q=-0.0 size=    2662kB time=00:00:01.70 bitrate=12759.7kbits/s speed=0.0752x    frame=   44 fps=1.9 q=-0.0 size=    2662kB time=00:00:01.79 bitrate=12162.0kbits/s speed=0.0764x    frame=   46 fps=1.9 q=-0.0 size=    2662kB time=00:00:01.87 bitrate=11623.9kbits/s speed=0.0775x    frame=   48 fps=1.9 q=-0.0 size=    3550kB time=00:00:01.95 bitrate=14845.3kbits/s speed=0.0777x    frame=   50 fps=1.9 q=-0.0 size=    3550kB time=00:00:02.04 bitrate=14234.9kbits/s speed=0.0793x    frame=   52 fps=2.0 q=-0.0 size=    3880kB time=00:00:02.12 bitrate=14949.0kbits/s speed=0.0802x    frame=   54 fps=2.0 q=-0.0 size=    4081kB time=00:00:02.20 bitrate=15134.1kbits/s speed=0.0806x    frame=   55 fps=2.0 q=-0.0 size=    4081kB time=00:00:02.25 bitrate=14851.8kbits/s speed=0.0807x    frame=   57 fps=2.0 q=-0.0 size=    4395kB time=00:00:02.33 bitrate=15426.9kbits/s speed=0.0811x    frame=   58 fps=2.0 q=-0.0 size=    4502kB time=00:00:02.37 bitrate=15523.5kbits/s speed=0.0811x    frame=   60 fps=2.0 q=-0.0 size=    4714kB time=00:00:02.45 bitrate=15702.8kbits/s speed=0.0812x    frame=   61 fps=2.0 q=-0.0 size=    4822kB time=00:00:02.50 bitrate=15795.8kbits/s speed=0.0813x    frame=   63 fps=2.0 q=-0.0 size=    4822kB time=00:00:02.58 bitrate=15288.4kbits/s speed=0.0817x    frame=   65 fps=2.0 q=-0.0 size=    4822kB time=00:00:02.66 bitrate=14807.1kbits/s speed=0.0816x    frame=   67 fps=2.0 q=-0.0 size=    5324kB time=00:00:02.75 bitrate=15854.8kbits/s speed=0.0821x    frame=   69 fps=2.0 q=-0.0 size=    5450kB time=00:00:02.83 bitrate=15754.8kbits/s speed=0.0826x    frame=   71 fps=2.0 q=-0.0 size=    5582kB time=00:00:02.91 bitrate=15669.9kbits/s speed=0.083x    frame=   73 fps=2.0 q=-0.0 size=    5714kB time=00:00:03.00 bitrate=15597.2kbits/s speed=0.0834x    frame=   75 fps=2.0 q=-0.0 size=    5833kB time=00:00:03.08 bitrate=15493.6kbits/s speed=0.0841x    frame=   77 fps=2.1 q=-0.0 size=    5946kB time=00:00:03.16 bitrate=15374.9kbits/s speed=0.0844x    frame=   79 fps=2.1 q=-0.0 size=    6061kB time=00:00:03.25 bitrate=15273.8kbits/s speed=0.0848x    frame=   81 fps=2.1 q=-0.0 size=    6184kB time=00:00:03.33 bitrate=15193.5kbits/s speed=0.0849x    frame=   83 fps=2.1 q=-0.0 size=    6311kB time=00:00:03.41 bitrate=15126.9kbits/s speed=0.0851x    frame=   85 fps=2.1 q=-0.0 size=    6452kB time=00:00:03.50 bitrate=15097.8kbits/s speed=0.0851x    frame=   87 fps=2.1 q=-0.0 size=    6580kB time=00:00:03.58 bitrate=15040.4kbits/s speed=0.0852x    frame=   89 fps=2.1 q=-0.0 size=    6717kB time=00:00:03.66 bitrate=15001.8kbits/s speed=0.0853x    frame=   91 fps=2.1 q=-0.0 size=    6867kB time=00:00:03.75 bitrate=14996.7kbits/s speed=0.0854x    frame=   93 fps=2.1 q=-0.0 size=    7026kB time=00:00:03.83 bitrate=15012.2kbits/s speed=0.0855x    frame=   95 fps=2.1 q=-0.0 size=    7106kB time=00:00:03.91 bitrate=14857.6kbits/s speed=0.0855x    frame=   97 fps=2.1 q=-0.0 size=    7340kB time=00:00:04.00 bitrate=15027.8kbits/s speed=0.0857x    frame=   99 fps=2.1 q=-0.0 size=    7505kB time=00:00:04.08 bitrate=15053.9kbits/s speed=0.0858x    frame=  101 fps=2.1 q=-0.0 size=    7663kB time=00:00:04.16 bitrate=15060.5kbits/s speed=0.086x    frame=  103 fps=2.1 q=-0.0 size=    7822kB time=00:00:04.25 bitrate=15072.8kbits/s speed=0.0862x    frame=  104 fps=2.1 q=-0.0 size=    7822kB time=00:00:04.29 bitrate=14925.4kbits/s speed=0.0862x    frame=  106 fps=2.1 q=-0.0 size=    8052kB time=00:00:04.37 bitrate=15073.8kbits/s speed=0.0866x    frame=  108 fps=2.1 q=-0.0 size=    8210kB time=00:00:04.45 bitrate=15083.1kbits/s speed=0.0867x    frame=  110 fps=2.1 q=-0.0 size=    8210kB time=00:00:04.54 bitrate=14804.2kbits/s speed=0.0869x    frame=  112 fps=2.1 q=-0.0 size=    8512kB time=00:00:04.62 bitrate=15072.9kbits/s speed=0.0873x    frame=  114 fps=2.1 q=-0.0 size=    8512kB time=00:00:04.70 bitrate=14807.2kbits/s speed=0.0874x    frame=  116 fps=2.1 q=-0.0 size=    8799kB time=00:00:04.79 bitrate=15038.5kbits/s speed=0.0878x    frame=  117 fps=2.1 q=-0.0 size=    8799kB time=00:00:04.83 bitrate=14910.9kbits/s speed=0.0877x    frame=  119 fps=2.1 q=-0.0 size=    8799kB time=00:00:04.91 bitrate=14656.3kbits/s speed=0.088x    frame=  120 fps=2.1 q=-0.0 size=    8799kB time=00:00:04.95 bitrate=14535.1kbits/s speed=0.0877x    frame=  122 fps=2.1 q=-0.0 size=    8799kB time=00:00:05.04 bitrate=14293.0kbits/s speed=0.0881x    frame=  124 fps=2.1 q=-0.0 size=    9504kB time=00:00:05.12 bitrate=15188.4kbits/s speed=0.0879x    frame=  126 fps=2.1 q=-0.0 size=    9716kB time=00:00:05.20 bitrate=15279.5kbits/s speed=0.088x    frame=  127 fps=2.1 q=-0.0 size=    9825kB time=00:00:05.25 bitrate=15327.4kbits/s speed=0.088x    frame=  128 fps=2.1 q=-0.0 size=    9933kB time=00:00:05.29 bitrate=15373.1kbits/s speed=0.0879x    frame=  130 fps=2.1 q=-0.0 size=   10151kB time=00:00:05.37 bitrate=15467.6kbits/s speed=0.0879x    frame=  132 fps=2.1 q=-0.0 size=   10388kB time=00:00:05.45 bitrate=15588.3kbits/s speed=0.0878x    frame=  134 fps=2.1 q=-0.0 size=   10641kB time=00:00:05.54 bitrate=15726.5kbits/s speed=0.0876x    frame=  136 fps=2.1 q=-0.0 size=   10887kB time=00:00:05.62 bitrate=15852.7kbits/s speed=0.0875x    frame=  138 fps=2.1 q=-0.0 size=   11130kB time=00:00:05.70 bitrate=15970.4kbits/s speed=0.0876x    frame=  140 fps=2.1 q=-0.0 size=   11130kB time=00:00:05.79 bitrate=15738.8kbits/s speed=0.0878x    frame=  142 fps=2.1 q=-0.0 size=   11130kB time=00:00:05.87 bitrate=15516.5kbits/s speed=0.0882x    frame=  144 fps=2.1 q=-0.0 size=   11130kB time=00:00:05.95 bitrate=15300.3kbits/s speed=0.0885x    frame=  146 fps=2.1 q=-0.0 size=   11130kB time=00:00:06.04 bitrate=15087.7kbits/s speed=0.0889x    frame=  148 fps=2.2 q=-0.0 size=   11130kB time=00:00:06.12 bitrate=14883.2kbits/s speed=0.0893x    frame=  150 fps=2.2 q=-0.0 size=   12084kB time=00:00:06.20 bitrate=15942.8kbits/s speed=0.0897x    frame=  153 fps=2.2 q=-0.0 size=   12084kB time=00:00:06.33 bitrate=15628.1kbits/s speed=0.0905x    frame=  155 fps=2.2 q=-0.0 size=   12084kB time=00:00:06.41 bitrate=15423.6kbits/s speed=0.0909x    frame=  157 fps=2.2 q=-0.0 size=   12508kB time=00:00:06.50 bitrate=15762.0kbits/s speed=0.0911x    frame=  159 fps=2.2 q=-0.0 size=   12508kB time=00:00:06.58 bitrate=15563.3kbits/s speed=0.0912x    frame=  161 fps=2.2 q=-0.0 size=   12508kB time=00:00:06.66 bitrate=15367.2kbits/s speed=0.0915x    frame=  163 fps=2.2 q=-0.0 size=   12894kB time=00:00:06.75 bitrate=15646.6kbits/s speed=0.0917x    frame=  165 fps=2.2 q=-0.0 size=   13061kB time=00:00:06.83 bitrate=15656.5kbits/s speed=0.0912x    frame=  167 fps=2.2 q=-0.0 size=   13228kB time=00:00:06.91 bitrate=15664.6kbits/s speed=0.0912x    frame=  169 fps=2.2 q=-0.0 size=   13395kB time=00:00:07.00 bitrate=15674.0kbits/s speed=0.0907x    frame=  171 fps=2.2 q=-0.0 size=   13565kB time=00:00:07.08 bitrate=15686.6kbits/s speed=0.0906x    frame=  173 fps=2.2 q=-0.0 size=   13728kB time=00:00:07.16 bitrate=15689.3kbits/s speed=0.0906x    frame=  175 fps=2.2 q=-0.0 size=   13894kB time=00:00:07.25 bitrate=15697.5kbits/s speed=0.0901x    frame=  177 fps=2.2 q=-0.0 size=   14058kB time=00:00:07.33 bitrate=15702.5kbits/s speed=0.0897x    frame=  179 fps=2.2 q=-0.0 size=   14210kB time=00:00:07.41 bitrate=15692.2kbits/s speed=0.0897x    frame=  181 fps=2.2 q=-0.0 size=   14360kB time=00:00:07.50 bitrate=15682.6kbits/s speed=0.0897x    frame=  183 fps=2.2 q=-0.0 size=   14517kB time=00:00:07.58 bitrate=15680.8kbits/s speed=0.0896x    frame=  185 fps=2.2 q=-0.0 size=   14595kB time=00:00:07.66 bitrate=15592.3kbits/s speed=0.0896x    frame=  187 fps=2.2 q=-0.0 size=   14595kB time=00:00:07.75 bitrate=15425.3kbits/s speed=0.0899x    frame=  189 fps=2.2 q=-0.0 size=   14595kB time=00:00:07.83 bitrate=15261.9kbits/s speed=0.0901x    frame=  191 fps=2.2 q=-0.0 size=   14595kB time=00:00:07.91 bitrate=15100.0kbits/s speed=0.0903x    frame=  193 fps=2.2 q=-0.0 size=   15195kB time=00:00:08.00 bitrate=15557.6kbits/s speed=0.0903x    frame=  195 fps=2.2 q=-0.0 size=   15458kB time=00:00:08.08 bitrate=15664.4kbits/s speed=0.0904x    frame=  196 fps=2.2 q=-0.0 size=   15549kB time=00:00:08.12 bitrate=15675.5kbits/s speed=0.0903x    frame=  198 fps=2.2 q=-0.0 size=   15726kB time=00:00:08.20 bitrate=15693.3kbits/s speed=0.0903x    frame=  199 fps=2.2 q=-0.0 size=   15817kB time=00:00:08.25 bitrate=15704.0kbits/s speed=0.0902x    frame=  201 fps=2.2 q=-0.0 size=   16011kB time=00:00:08.33 bitrate=15737.9kbits/s speed=0.0902x    frame=  203 fps=2.2 q=-0.0 size=   16227kB time=00:00:08.41 bitrate=15791.6kbits/s speed=0.0901x    frame=  205 fps=2.2 q=-0.0 size=   16442kB time=00:00:08.50 bitrate=15844.7kbits/s speed=0.0901x    frame=  207 fps=2.2 q=-0.0 size=   16650kB time=00:00:08.58 bitrate=15890.0kbits/s speed=0.09x    frame=  209 fps=2.2 q=-0.0 size=   16865kB time=00:00:08.66 bitrate=15939.3kbits/s speed=0.09x    frame=  211 fps=2.2 q=-0.0 size=   17092kB time=00:00:08.75 bitrate=15999.8kbits/s speed=0.09x    frame=  213 fps=2.2 q=-0.0 size=   17326kB time=00:00:08.83 bitrate=16066.6kbits/s speed=0.0899x    frame=  215 fps=2.2 q=-0.0 size=   17445kB time=00:00:08.91 bitrate=16025.0kbits/s speed=0.0899x    frame=  217 fps=2.2 q=-0.0 size=   17445kB time=00:00:09.00 bitrate=15877.2kbits/s speed=0.0901x    frame=  219 fps=2.2 q=-0.0 size=   17445kB time=00:00:09.08 bitrate=15732.2kbits/s speed=0.0903x    frame=  221 fps=2.2 q=-0.0 size=   17445kB time=00:00:09.16 bitrate=15588.0kbits/s speed=0.0906x    frame=  223 fps=2.2 q=-0.0 size=   17445kB time=00:00:09.25 bitrate=15448.2kbits/s speed=0.0908x    frame=  225 fps=2.2 q=-0.0 size=   17445kB time=00:00:09.33 bitrate=15310.8kbits/s speed=0.0911x    frame=  227 fps=2.2 q=-0.0 size=   18261kB time=00:00:09.41 bitrate=15883.7kbits/s speed=0.0914x    frame=  229 fps=2.2 q=-0.0 size=   18261kB time=00:00:09.50 bitrate=15744.9kbits/s speed=0.0916x    frame=  231 fps=2.2 q=-0.0 size=   18261kB time=00:00:09.58 bitrate=15608.5kbits/s speed=0.0919x    frame=  232 fps=2.2 q=-0.0 size=   18261kB time=00:00:09.62 bitrate=15540.4kbits/s speed=0.0916x    frame=  234 fps=2.2 q=-0.0 size=   18261kB time=00:00:09.70 bitrate=15407.6kbits/s speed=0.0918x    frame=  236 fps=2.2 q=-0.0 size=   18261kB time=00:00:09.79 bitrate=15275.4kbits/s speed=0.0919x    frame=  238 fps=2.2 q=-0.0 size=   19139kB time=00:00:09.87 bitrate=15875.3kbits/s speed=0.0917x    frame=  240 fps=2.2 q=-0.0 size=   19139kB time=00:00:09.95 bitrate=15743.0kbits/s speed=0.0918x    frame=  242 fps=2.2 q=-0.0 size=   19139kB time=00:00:10.04 bitrate=15611.3kbits/s speed=0.0917x    frame=  244 fps=2.2 q=-0.0 size=   19139kB time=00:00:10.12 bitrate=15483.3kbits/s speed=0.0919x    frame=  246 fps=2.2 q=-0.0 size=   19139kB time=00:00:10.20 bitrate=15357.5kbits/s speed=0.0921x    frame=  248 fps=2.2 q=-0.0 size=   19139kB time=00:00:10.29 bitrate=15232.1kbits/s speed=0.0923x    frame=  250 fps=2.2 q=-0.0 size=   20127kB time=00:00:10.37 bitrate=15890.8kbits/s speed=0.0925x    frame=  253 fps=2.2 q=-0.0 size=   20127kB time=00:00:10.50 bitrate=15701.6kbits/s speed=0.093x    frame=  255 fps=2.2 q=-0.0 size=   20127kB time=00:00:10.58 bitrate=15578.5kbits/s speed=0.0932x    frame=  257 fps=2.2 q=-0.0 size=   20127kB time=00:00:10.66 bitrate=15455.8kbits/s speed=0.0934x    frame=  259 fps=2.3 q=-0.0 size=   20127kB time=00:00:10.75 bitrate=15336.5kbits/s speed=0.0936x    frame=  261 fps=2.3 q=-0.0 size=   20127kB time=00:00:10.83 bitrate=15219.0kbits/s speed=0.0938x    frame=  264 fps=2.3 q=-0.0 size=   20842kB time=00:00:10.95 bitrate=15579.5kbits/s speed=0.0943x    frame=  266 fps=2.3 q=-0.0 size=   21001kB time=00:00:11.04 bitrate=15579.0kbits/s speed=0.0945x    frame=  268 fps=2.3 q=-0.0 size=   21001kB time=00:00:11.12 bitrate=15462.8kbits/s speed=0.0946x    frame=  270 fps=2.3 q=-0.0 size=   21001kB time=00:00:11.20 bitrate=15348.3kbits/s speed=0.0948x    frame=  272 fps=2.3 q=-0.0 size=   21001kB time=00:00:11.29 bitrate=15234.1kbits/s speed=0.0949x    frame=  274 fps=2.3 q=-0.0 size=   21001kB time=00:00:11.37 bitrate=15123.0kbits/s speed=0.0951x    frame=  276 fps=2.3 q=-0.0 size=   21001kB time=00:00:11.45 bitrate=15013.4kbits/s speed=0.0952x    frame=  278 fps=2.3 q=-0.0 size=   21672kB time=00:00:11.54 bitrate=15380.6kbits/s speed=0.0953x    frame=  280 fps=2.3 q=-0.0 size=   21672kB time=00:00:11.62 bitrate=15270.8kbits/s speed=0.0956x    frame=  282 fps=2.3 q=-0.0 size=   21672kB time=00:00:11.70 bitrate=15162.6kbits/s speed=0.0957x    frame=  284 fps=2.3 q=-0.0 size=   21672kB time=00:00:11.79 bitrate=15054.6kbits/s speed=0.0958x    frame=  286 fps=2.3 q=-0.0 size=   21672kB time=00:00:11.87 bitrate=14949.4kbits/s speed=0.0959x    frame=  288 fps=2.3 q=-0.0 size=   21672kB time=00:00:11.95 bitrate=14845.6kbits/s speed=0.096x    frame=  290 fps=2.3 q=-0.0 size=   22588kB time=00:00:12.04 bitrate=15365.1kbits/s speed=0.0962x    frame=  292 fps=2.3 q=-0.0 size=   22588kB time=00:00:12.12 bitrate=15259.9kbits/s speed=0.0964x    frame=  294 fps=2.3 q=-0.0 size=   22588kB time=00:00:12.20 bitrate=15156.2kbits/s speed=0.0965x    frame=  296 fps=2.3 q=-0.0 size=   22588kB time=00:00:12.29 bitrate=15052.6kbits/s speed=0.0967x    frame=  298 fps=2.3 q=-0.0 size=   22588kB time=00:00:12.37 bitrate=14951.6kbits/s speed=0.0968x    frame=  300 fps=2.3 q=-0.0 size=   22588kB time=00:00:12.45 bitrate=14852.0kbits/s speed=0.0969x    frame=  302 fps=2.3 q=-0.0 size=   23356kB time=00:00:12.54 bitrate=15253.8kbits/s speed=0.097x    frame=  304 fps=2.3 q=-0.0 size=   23356kB time=00:00:12.62 bitrate=15153.6kbits/s speed=0.0972x    frame=  306 fps=2.3 q=-0.0 size=   23356kB time=00:00:12.70 bitrate=15054.6kbits/s speed=0.0974x    frame=  308 fps=2.3 q=-0.0 size=   23356kB time=00:00:12.79 bitrate=14955.7kbits/s speed=0.0975x    frame=  310 fps=2.3 q=-0.0 size=   23356kB time=00:00:12.87 bitrate=14859.3kbits/s speed=0.0976x    frame=  312 fps=2.4 q=-0.0 size=   23356kB time=00:00:12.95 bitrate=14764.2kbits/s speed=0.0977x    frame=  314 fps=2.4 q=-0.0 size=   24183kB time=00:00:13.04 bitrate=15188.8kbits/s speed=0.0978x    frame=  316 fps=2.4 q=-0.0 size=   24183kB time=00:00:13.12 bitrate=15092.8kbits/s speed=0.098x    frame=  318 fps=2.4 q=-0.0 size=   24183kB time=00:00:13.20 bitrate=14997.9kbits/s speed=0.0981x    frame=  320 fps=2.4 q=-0.0 size=   24183kB time=00:00:13.29 bitrate=14903.2kbits/s speed=0.0982x    frame=  322 fps=2.4 q=-0.0 size=   24183kB time=00:00:13.37 bitrate=14810.7kbits/s speed=0.0983x    frame=  324 fps=2.4 q=-0.0 size=   24183kB time=00:00:13.45 bitrate=14719.4kbits/s speed=0.0984x    frame=  326 fps=2.4 q=-0.0 size=   25121kB time=00:00:13.54 bitrate=15195.2kbits/s speed=0.0984x    frame=  328 fps=2.4 q=-0.0 size=   25121kB time=00:00:13.62 bitrate=15102.7kbits/s speed=0.0987x    frame=  330 fps=2.4 q=-0.0 size=   25121kB time=00:00:13.70 bitrate=15011.2kbits/s speed=0.0988x    frame=  332 fps=2.4 q=-0.0 size=   25121kB time=00:00:13.79 bitrate=14919.8kbits/s speed=0.0989x    frame=  334 fps=2.4 q=-0.0 size=   25121kB time=00:00:13.87 bitrate=14830.6kbits/s speed=0.099x    frame=  336 fps=2.4 q=-0.0 size=   25121kB time=00:00:13.95 bitrate=14742.4kbits/s speed=0.099x    frame=  338 fps=2.4 q=-0.0 size=   26029kB time=00:00:14.04 bitrate=15183.9kbits/s speed=0.0991x    frame=  340 fps=2.4 q=-0.0 size=   26029kB time=00:00:14.12 bitrate=15094.6kbits/s speed=0.0993x    frame=  342 fps=2.4 q=-0.0 size=   26029kB time=00:00:14.20 bitrate=15006.5kbits/s speed=0.0994x    frame=  344 fps=2.4 q=-0.0 size=   26029kB time=00:00:14.29 bitrate=14918.3kbits/s speed=0.0995x    frame=  346 fps=2.4 q=-0.0 size=   26029kB time=00:00:14.37 bitrate=14832.2kbits/s speed=0.0996x    frame=  348 fps=2.4 q=-0.0 size=   26029kB time=00:00:14.45 bitrate=14747.0kbits/s speed=0.0996x    frame=  350 fps=2.4 q=-0.0 size=   26910kB time=00:00:14.54 bitrate=15158.2kbits/s speed=0.0997x    frame=  352 fps=2.4 q=-0.0 size=   26910kB time=00:00:14.62 bitrate=15072.2kbits/s speed=0.0999x    frame=  354 fps=2.4 q=-0.0 size=   26910kB time=00:00:14.70 bitrate=14987.1kbits/s speed=0.0999x    frame=  356 fps=2.4 q=-0.0 size=   26910kB time=00:00:14.79 bitrate=14902.0kbits/s speed= 0.1x    frame=  358 fps=2.4 q=-0.0 size=   26910kB time=00:00:14.87 bitrate=14818.9kbits/s speed= 0.1x    frame=  360 fps=2.4 q=-0.0 size=   26910kB time=00:00:14.95 bitrate=14736.6kbits/s speed= 0.1x    frame=  362 fps=2.4 q=-0.0 size=   27865kB time=00:00:15.04 bitrate=15174.4kbits/s speed= 0.1x    frame=  364 fps=2.4 q=-0.0 size=   28186kB time=00:00:15.12 bitrate=15265.1kbits/s speed= 0.1x    frame=  366 fps=2.4 q=-0.0 size=   28186kB time=00:00:15.20 bitrate=15181.8kbits/s speed= 0.1x    frame=  368 fps=2.4 q=-0.0 size=   28186kB time=00:00:15.29 bitrate=15098.4kbits/s speed= 0.1x    frame=  370 fps=2.4 q=-0.0 size=   28186kB time=00:00:15.37 bitrate=15016.9kbits/s speed=0.101x    frame=  372 fps=2.4 q=-0.0 size=   28186kB time=00:00:15.45 bitrate=14936.3kbits/s speed=0.101x    frame=  374 fps=2.4 q=-0.0 size=   28186kB time=00:00:15.54 bitrate=14855.6kbits/s speed=0.101x    frame=  376 fps=2.4 q=-0.0 size=   29064kB time=00:00:15.62 bitrate=15237.1kbits/s speed=0.101x    frame=  378 fps=2.4 q=-0.0 size=   29064kB time=00:00:15.70 bitrate=15156.6kbits/s speed=0.101x    frame=  380 fps=2.4 q=-0.0 size=   29064kB time=00:00:15.79 bitrate=15076.0kbits/s speed=0.101x    frame=  382 fps=2.4 q=-0.0 size=   29064kB time=00:00:15.87 bitrate=14997.2kbits/s speed=0.101x    frame=  384 fps=2.4 q=-0.0 size=   29064kB time=00:00:15.95 bitrate=14919.2kbits/s speed=0.101x    frame=  386 fps=2.4 q=-0.0 size=   29064kB time=00:00:16.04 bitrate=14841.1kbits/s speed=0.101x    frame=  388 fps=2.4 q=-0.0 size=   29869kB time=00:00:16.12 bitrate=15173.4kbits/s speed=0.101x    frame=  390 fps=2.4 q=-0.0 size=   29869kB time=00:00:16.20 bitrate=15095.7kbits/s speed=0.101x    frame=  392 fps=2.4 q=-0.0 size=   29869kB time=00:00:16.29 bitrate=15017.8kbits/s speed=0.102x    frame=  394 fps=2.4 q=-0.0 size=   29869kB time=00:00:16.37 bitrate=14941.7kbits/s speed=0.102x    frame=  396 fps=2.4 q=-0.0 size=   30774kB time=00:00:16.45 bitrate=15316.9kbits/s speed=0.102x    frame=  398 fps=2.4 q=-0.0 size=   30774kB time=00:00:16.54 bitrate=15239.1kbits/s speed=0.102x    frame=  400 fps=2.4 q=-0.0 size=   30774kB time=00:00:16.62 bitrate=15163.0kbits/s speed=0.102x    frame=  402 fps=2.4 q=-0.0 size=   30774kB time=00:00:16.70 bitrate=15087.7kbits/s speed=0.102x    frame=  404 fps=2.4 q=-0.0 size=   30774kB time=00:00:16.79 bitrate=15012.2kbits/s speed=0.102x    frame=  406 fps=2.4 q=-0.0 size=   30774kB time=00:00:16.87 bitrate=14938.4kbits/s speed=0.102x    frame=  408 fps=2.5 q=-0.0 size=   31871kB time=00:00:16.95 bitrate=15395.2kbits/s speed=0.102x    frame=  410 fps=2.5 q=-0.0 size=   31871kB time=00:00:17.04 bitrate=15319.4kbits/s speed=0.102x    frame=  412 fps=2.5 q=-0.0 size=   31871kB time=00:00:17.12 bitrate=15245.1kbits/s speed=0.102x    frame=  414 fps=2.5 q=-0.0 size=   31871kB time=00:00:17.20 bitrate=15171.6kbits/s speed=0.102x    frame=  416 fps=2.5 q=-0.0 size=   31871kB time=00:00:17.29 bitrate=15097.9kbits/s speed=0.102x    frame=  418 fps=2.5 q=-0.0 size=   31871kB time=00:00:17.37 bitrate=15025.8kbits/s speed=0.102x    frame=  420 fps=2.5 q=-0.0 size=   32523kB time=00:00:17.45 bitrate=15260.2kbits/s speed=0.102x    frame=  422 fps=2.5 q=-0.0 size=   32523kB time=00:00:17.54 bitrate=15187.1kbits/s speed=0.102x    frame=  424 fps=2.5 q=-0.0 size=   32523kB time=00:00:17.62 bitrate=15115.6kbits/s speed=0.103x    frame=  426 fps=2.5 q=-0.0 size=   32523kB time=00:00:17.70 bitrate=15044.7kbits/s speed=0.103x    frame=  428 fps=2.5 q=-0.0 size=   32523kB time=00:00:17.79 bitrate=14973.7kbits/s speed=0.103x    frame=  430 fps=2.5 q=-0.0 size=   32523kB time=00:00:17.87 bitrate=14904.2kbits/s speed=0.103x    frame=  432 fps=2.5 q=-0.0 size=   33618kB time=00:00:17.95 bitrate=15334.8kbits/s speed=0.103x    frame=  434 fps=2.5 q=-0.0 size=   33618kB time=00:00:18.04 bitrate=15263.4kbits/s speed=0.103x    frame=  436 fps=2.5 q=-0.0 size=   33618kB time=00:00:18.12 bitrate=15193.5kbits/s speed=0.103x    frame=  438 fps=2.5 q=-0.0 size=   33618kB time=00:00:18.20 bitrate=15124.2kbits/s speed=0.103x    frame=  440 fps=2.5 q=-0.0 size=   33618kB time=00:00:18.29 bitrate=15054.8kbits/s speed=0.103x    frame=  442 fps=2.5 q=-0.0 size=   33618kB time=00:00:18.37 bitrate=14986.8kbits/s speed=0.103x    frame=  444 fps=2.5 q=-0.0 size=   34290kB time=00:00:18.45 bitrate=15217.8kbits/s speed=0.103x    frame=  446 fps=2.5 q=-0.0 size=   34290kB time=00:00:18.54 bitrate=15148.9kbits/s speed=0.103x    frame=  448 fps=2.5 q=-0.0 size=   34290kB time=00:00:18.62 bitrate=15081.4kbits/s speed=0.103x    frame=  450 fps=2.5 q=-0.0 size=   34290kB time=00:00:18.70 bitrate=15014.5kbits/s speed=0.103x    frame=  452 fps=2.5 q=-0.0 size=   34290kB time=00:00:18.79 bitrate=14947.4kbits/s speed=0.103x    frame=  454 fps=2.5 q=-0.0 size=   34290kB time=00:00:18.87 bitrate=14881.7kbits/s speed=0.104x    frame=  456 fps=2.5 q=-0.0 size=   35194kB time=00:00:18.95 bitrate=15207.0kbits/s speed=0.104x    frame=  458 fps=2.5 q=-0.0 size=   35194kB time=00:00:19.04 bitrate=15139.9kbits/s speed=0.104x    frame=  460 fps=2.5 q=-0.0 size=   35194kB time=00:00:19.12 bitrate=15074.2kbits/s speed=0.104x    frame=  462 fps=2.5 q=-0.0 size=   35194kB time=00:00:19.20 bitrate=15009.0kbits/s speed=0.104x    frame=  464 fps=2.5 q=-0.0 size=   35194kB time=00:00:19.29 bitrate=14943.7kbits/s speed=0.104x    frame=  466 fps=2.5 q=-0.0 size=   35194kB time=00:00:19.37 bitrate=14879.7kbits/s speed=0.104x    frame=  468 fps=2.5 q=-0.0 size=   36052kB time=00:00:19.45 bitrate=15177.3kbits/s speed=0.104x    frame=  470 fps=2.5 q=-0.0 size=   36052kB time=00:00:19.54 bitrate=15112.1kbits/s speed=0.104x    frame=  472 fps=2.5 q=-0.0 size=   36052kB time=00:00:19.62 bitrate=15048.2kbits/s speed=0.104x    frame=  474 fps=2.5 q=-0.0 size=   36052kB time=00:00:19.70 bitrate=14984.8kbits/s speed=0.104x    frame=  476 fps=2.5 q=-0.0 size=   36052kB time=00:00:19.79 bitrate=14921.2kbits/s speed=0.104x    frame=  478 fps=2.5 q=-0.0 size=   36052kB time=00:00:19.87 bitrate=14858.9kbits/s speed=0.104x    frame=  480 fps=2.5 q=-0.0 size=   36972kB time=00:00:19.95 bitrate=15174.9kbits/s speed=0.104x    frame=  482 fps=2.5 q=-0.0 size=   36972kB time=00:00:20.04 bitrate=15111.3kbits/s speed=0.104x    frame=  484 fps=2.5 q=-0.0 size=   36972kB time=00:00:20.12 bitrate=15049.0kbits/s speed=0.104x    frame=  486 fps=2.5 q=-0.0 size=   36972kB time=00:00:20.20 bitrate=14987.2kbits/s speed=0.104x    frame=  488 fps=2.5 q=-0.0 size=   36972kB time=00:00:20.29 bitrate=14925.2kbits/s speed=0.105x    frame=  490 fps=2.5 q=-0.0 size=   36972kB time=00:00:20.37 bitrate=14864.4kbits/s speed=0.105x    frame=  492 fps=2.5 q=-0.0 size=   37767kB time=00:00:20.45 bitrate=15122.4kbits/s speed=0.105x    frame=  494 fps=2.5 q=-0.0 size=   37767kB time=00:00:20.54 bitrate=15060.6kbits/s speed=0.105x    frame=  495 fps=2.5 q=-0.0 size=   37767kB time=00:00:20.58 bitrate=15030.6kbits/s speed=0.105x    frame=  497 fps=2.5 q=-0.0 size=   37767kB time=00:00:20.66 bitrate=14969.5kbits/s speed=0.105x    frame=  499 fps=2.5 q=-0.0 size=   37767kB time=00:00:20.75 bitrate=14909.6kbits/s speed=0.105x    frame=  500 fps=2.5 q=-0.0 size=   37767kB time=00:00:20.79 bitrate=14879.5kbits/s speed=0.105x    frame=  500 fps=2.5 q=-0.0 Lsize=   38619kB time=00:00:20.79 bitrate=15215.1kbits/s speed=0.105x    
video:38606kB audio:0kB subtitle:0kB other streams:0kB global headers:3kB muxing overhead: 0.034529%
bench: utime=174.628s
bench: maxrss=247600kB
